<svg height="64" viewBox="0 0 64 64" width="64" xmlns="http://www.w3.org/2000/svg"><path d="m25.50195 52.27904c-5.57094 5.17976-15.05833 3.8102-19.50043-1.67434-5.25741-6.47749-6.30715-18.75427 2.85195-29.73619 4.54303-5.44717 10.01811-9.5772 16.41965-12.39008l2.95241 4.75511c-9.10641 4.4128-15.91278 10.39585-16.8773 20.42689 4.10871 0 7.51761-.14883 10.55389.93763 3.45683 1.23695 5.55654 3.53097 6.41829 6.16155 1.36701 4.11877.70434 8.244-2.81846 11.51943zm33.0179 0c-5.57094 5.17976-15.05833 3.8102-19.50043-1.67434-5.25741-6.47749-6.30716-18.75427 2.85195-29.73619 4.54303-5.44717 10.0181-9.5772 16.41965-12.39008l2.95241 4.75511c-9.10641 4.4128-15.91278 10.39585-16.8773 20.42689 4.10871 0 7.51761-.14883 10.55389.93763 3.45683 1.23695 5.55654 3.53097 6.41829 6.16155 1.367 4.11877.70433 8.244-2.81846 11.51943z" fill="#13328c"/></svg>